# xmcd
#
# Track frame offsets:
#	150
#	14517
#	26988
#	36544
#	57703
#	71992
#	84308
#	100441
#	117655
#	138106
#	153046
#	168235
#	184287
#	195853
#	206652
#	221671
#	230728
#	241883
#	254657
#	262190
#
# Disc length: 3668 seconds
#
# Revision: 4
# Processed by: cddbd v1.5.2PL0 Copyright (c) Steve Scherf et al.
# Submitted via: EasyCDDAExtractor 15.2.5.1
#
DISCID=350e5214
DTITLE=Various Artist - Cowboy Classics
DYEAR=2002
DGENRE=Country
TTITLE0=Eddie Raven - San Antonio Nights
TTITLE1=Mickey Gilley - Don´t The Girl All Get Prettier At Closing
TTITLE2=Porter Waggoner - Louisiana Saturday Night
TTITLE3=Tanya Tucker - Texas When I Die
TTITLE4=Dave Rowland and Sugar - Queen Of The Silver Dollar
TTITLE5=Tex Williams - Smoke, Smoke, Smoke That Cigarette
TTITLE6=Richard Bushrod - I`m A Cowboy
TTITLE7=Freddy Fender - Whiskey River
TTITLE8=Gary Morris - Momma You Can`t Give Me No Whipping
TTITLE9=Ed Bruce - Texas When I Die
TTITLE10=Tom T Hall - Old Dogs, Children and Watermelon Wine
TTITLE11=Mel Tillis - Rose Of El Paso
TTITLE12=Earl Thomas Conley - Bad Bobs
TTITLE13=Boxcar Willie - Wabash Cannonball
TTITLE14=George Jones - I Always Get Lucky With You
TTITLE15=Ed Bruce - Mama Don`t Let Your Children
TTITLE16=Gene Watson - You`re Out Doin` What I`m Doin` Without
TTITLE17=Rex Allen Jr. - Can Your Hear Those Pioneers
TTITLE18=Rex Allen Sr. - Highway
TTITLE19=Mickey Gilley - Headache Tomorrow, Heartache Tonight
EXTD=
EXTT0=
EXTT1=
EXTT2=
EXTT3=
EXTT4=
EXTT5=
EXTT6=
EXTT7=
EXTT8=
EXTT9=
EXTT10=
EXTT11=
EXTT12=
EXTT13=
EXTT14=
EXTT15=
EXTT16=
EXTT17=
EXTT18=
EXTT19=
PLAYORDER=
